<?xml version="1.0" encoding="UTF-8"?><svg id="a" xmlns="http://www.w3.org/2000/svg" viewBox="0 0 347.101 105.358"><defs>
<style>
.b,.c,.d,.e,.f{stroke:#1a3647;}.b,.c,.e{fill:none;stroke-miterlimit:10;}.b,.d,.f{stroke-width:2px;}.c{stroke-linecap:round;stroke-width:5px;}.g{fill:#1a3647;}.d,.f{stroke-linejoin:round;}.d,.h{fill:#b4b6db;}.i{fill:#8bc3ca;}.e{stroke-width:3px;}.f{fill:#a377ad;}
@media (prefers-color-scheme: dark) { .b,.c,.d,.e,.f{stroke:#8bc3ca;}.b,.c,.e{fill:none;stroke-miterlimit:10;}.b,.d,.f{stroke-width:2px;}.c{stroke-linecap:round;stroke-width:5px;}.g{fill:#8bc3ca;}.d,.f{stroke-linejoin:round;}.d,.h{fill:#614468;}.i{fill:#1a3647;}.e{stroke-width:3px;}.f{fill:#a377ad;} }
</style>
</defs><path class="i" d="M31.445,46.191v34.873h44.001v-34.873H31.445ZM59.666,51.522c.593,0,1.073.481,1.073,1.073s-.481,1.074-1.073,1.074-1.073-.481-1.073-1.074.481-1.073,1.073-1.073ZM33.344,51.522c0-.593.481-1.074,1.073-1.074s1.074.481,1.074,1.074-.481,1.073-1.074,1.073-1.073-.481-1.073-1.073ZM35.491,61.912c.593,0,1.073.481,1.073,1.074s-.481,1.073-1.073,1.073-1.074-.481-1.074-1.073.481-1.074,1.074-1.074ZM36.564,75.131c-1.043,0-1.888-.845-1.888-1.888s.845-1.888,1.888-1.888,1.888.845,1.888,1.888-.845,1.888-1.888,1.888ZM42.895,72.429c-.593,0-1.074-.481-1.074-1.073s.481-1.074,1.074-1.074,1.073.481,1.073,1.074-.481,1.073-1.073,1.073ZM45.129,54.743c0-.593.481-1.074,1.073-1.074s1.073.481,1.073,1.074-.481,1.073-1.073,1.073-1.073-.481-1.073-1.073ZM46.587,77.22c-.593,0-1.073-.481-1.073-1.074s.481-1.074,1.073-1.074,1.073.481,1.073,1.074-.48,1.074-1.073,1.074ZM47.276,64.747c-.973,0-1.762-.789-1.762-1.762s.789-1.762,1.762-1.762,1.762.789,1.762,1.762-.789,1.762-1.762,1.762ZM57.435,64.851c0-.973.789-1.762,1.762-1.762s1.762.789,1.762,1.762-.789,1.762-1.762,1.762-1.762-.789-1.762-1.762ZM60.959,77.229c-.973,0-1.762-.789-1.762-1.762s.789-1.762,1.762-1.762,1.762.789,1.762,1.762-.789,1.762-1.762,1.762ZM65.787,73.243c-.593,0-1.073-.481-1.073-1.073s.481-1.074,1.073-1.074,1.074.481,1.074,1.074-.481,1.073-1.074,1.073ZM70.648,76.541c-.593,0-1.073-.481-1.073-1.074s.481-1.073,1.073-1.073,1.073.481,1.073,1.073-.481,1.074-1.073,1.074ZM70.648,67.427c-.593,0-1.073-.481-1.073-1.074s.481-1.074,1.073-1.074,1.073.481,1.073,1.074-.481,1.074-1.073,1.074ZM71.06,51.522c-.593,0-1.074-.481-1.074-1.074s.481-1.073,1.074-1.073,1.073.481,1.073,1.073-.481,1.074-1.073,1.074Z"/><path class="g" d="M53.505,7.566l-12.402-4.526c-1.088-.397-2.198.533-1.998,1.673l2.281,13.003c.2,1.141,1.56,1.637,2.448.894l10.121-8.477c.888-.744.638-2.17-.45-2.567Z"/><path class="c" d="M9.125,66.335C2.769,42.079,17.279,17.264,41.535,10.907"/><path class="g" d="M11.876,77.353l2.282,13.009c.2,1.14,1.558,1.635,2.445.893l10.125-8.481c.887-.743.637-2.167-.45-2.564l-12.407-4.528c-1.087-.397-2.196.532-1.996,1.672Z"/><path class="c" d="M84.962,86.405c-17.828,17.632-46.574,17.474-64.207-.354"/><path class="g" d="M93.201,78.728l10.125-8.48c.887-.743.637-2.168-.45-2.564l-12.406-4.528c-1.087-.397-2.196.532-1.996,1.672l2.282,13.008c.2,1.14,1.559,1.636,2.446.893Z"/><path class="c" d="M64.498,10.907c24.184,6.623,38.42,31.597,31.797,55.781"/><circle class="h" cx="21.938" cy="65.621" r="2.721"/><circle class="h" cx="82.384" cy="41.681" r="2.721"/><circle class="h" cx="22.229" cy="41.675" r="1.773"/><circle class="h" cx="82.689" cy="65.572" r="1.773"/><circle class="i" cx="20.465" cy="53.984" r="3.792"/><circle class="i" cx="85.095" cy="53.956" r="3.792"/><rect class="f" x="38.846" y="30.408" width="4.001" height="36.299"/><rect class="d" x="62.716" y="30.762" width="3.996" height="36.299"/><circle class="g" cx="52.859" cy="23.88" r="3.11"/><rect class="e" x="30.271" y="30.054" width="45.175" height="52.183" rx="4.01" ry="4.01"/><path class="b" d="M40.846,30.054v-1.961c0-2.327,1.729-4.213,3.862-4.213h16.144c2.133,0,3.862,1.886,3.862,4.213v1.961"/><line class="e" x1="52.78" y1="30.054" x2="52.78" y2="82.238"/><path class="g" d="M149.328,40.505c.166.133.25.292.25.475,0,.184-.076.434-.226.75-.149.317-.399.733-.75,1.25-.351.518-.976,1.225-1.875,2.125s-1.884,1.675-2.95,2.325c-1.066.649-2.475,1.225-4.225,1.725s-3.625.75-5.625.75c-4.867,0-8.926-1.7-12.176-5.1-3.25-3.4-4.875-7.858-4.875-13.375s1.643-9.908,4.926-13.175,7.241-4.9,11.875-4.9c5.166,0,8.916,1.783,11.25,5.35l-.051-4.449c-.066-.4.133-.601.601-.601h2.8c.434,0,.65.2.65.601v10.899c0,.434-.217.65-.65.65h-3.15c-.399,0-.6-.217-.6-.65v-.45c0-1.532-1.042-3.125-3.125-4.774-2.084-1.65-4.675-2.476-7.775-2.476s-5.892,1.226-8.375,3.676c-2.482,2.449-3.725,5.917-3.725,10.399s1.25,7.968,3.75,10.45c2.5,2.483,5.434,3.725,8.801,3.725,3.633,0,6.5-.816,8.6-2.449,1.633-1.267,2.832-2.551,3.6-3.851.267-.5.583-.6.95-.3l2.101,1.4Z"/><path class="g" d="M177.678,49.554h-4.35c-1.434,0-2.15-.7-2.15-2.101v-2.55h-.1c-2.434,3.367-5.684,5.05-9.75,5.05-2.4,0-4.367-.625-5.9-1.875s-2.301-2.941-2.301-5.074c0-2.733,1.191-4.742,3.576-6.025,2.383-1.283,5.657-1.925,9.824-1.925h4.2v-.601c0-4.166-2.167-6.25-6.5-6.25-2.034,0-3.5.192-4.399.575-.9.384-1.543.692-1.926.925-.383.234-.675.418-.875.551-.5.399-.867.434-1.1.1l-1.4-1.75c-.233-.267-.199-.533.1-.8.566-.733,1.733-1.45,3.5-2.15,1.768-.7,3.851-1.05,6.25-1.05,7,0,10.5,3.334,10.5,10v11.6h2.801c.4,0,.6.2.6.601v2.149c0,.4-.199.601-.6.601ZM170.727,38.054h-3.95c-1.934,0-3.533.1-4.8.3s-2.343.634-3.226,1.3c-.883.667-1.324,1.584-1.324,2.75s.475,2.125,1.425,2.875,2.191,1.125,3.726,1.125c3.232,0,5.949-1.433,8.149-4.3v-4.05Z"/><path class="g" d="M197.377,47.005c.133.133.2.274.2.425,0,.149-.1.325-.3.524-1.467,1.301-3.309,1.95-5.525,1.95s-4.033-.725-5.449-2.175c-1.418-1.45-2.125-3.558-2.125-6.325v-13.1h-2.801c-.467,0-.699-.217-.699-.65v-2.05c0-.433.232-.65.699-.65h2.801v-5.05c0-.466.232-.7.699-.7h2.801c.433,0,.649.234.649.7v5.05h6.351c.466,0,.699.218.699.65v2.05c0,.434-.233.65-.699.65h-6.351v13c0,1.667.375,2.925,1.125,3.774.75.851,1.75,1.275,3,1.275s2.191-.316,2.825-.95c.333-.3.633-.282.9.05l1.199,1.551Z"/><path class="g" d="M213.476,49.554h-12c-.434,0-.65-.2-.65-.601v-2.55c0-.399.217-.6.65-.6h3.801v-28.4h-3.801c-.434,0-.65-.2-.65-.6v-2.55c0-.4.217-.601.65-.601h12c.434,0,.65.2.65.601v2.55c0,.399-.217.6-.65.6h-3.85v28.4h3.85c.434,0,.65.2.65.6v2.55c0,.4-.217.601-.65.601Z"/><path class="g" d="M249.777,49.554h-2.7c-.634,0-1.134-.125-1.5-.375-.367-.25-.717-.642-1.05-1.175l-14.45-22.601-2.5-4.2h-.1v24.601h3.85c.433,0,.65.2.65.6v2.55c0,.4-.218.601-.65.601h-12c-.434,0-.649-.2-.649-.601v-2.55c0-.399.216-.6.649-.6h3.8v-28.4h-3.8c-.434,0-.649-.2-.649-.6v-2.55c0-.4.216-.601.649-.601h7c.967,0,1.816.567,2.55,1.7l14.25,22.3,2.851,4.851h.1v-25.101h-3.85c-.4,0-.601-.2-.601-.6v-2.55c0-.4.2-.601.601-.601h12.05c.4,0,.6.2.6.601v2.55c0,.399-.199.6-.6.6h-3.85v31.55c0,.4-.218.601-.65.601Z"/><path class="g" d="M273.427,49.554h-13.8c-.434,0-.649-.2-.649-.601v-2.55c0-.399.216-.6.649-.6h3.8v-28.4h-3.8c-.434,0-.649-.2-.649-.6v-2.55c0-.4.216-.601.649-.601h25.65c.433,0,.649.2.649.601v8.05c0,.434-.217.649-.649.649h-2.7c-.4,0-.6-.216-.6-.649v-4.9h-14.2v12.4h11.75c.433,0,.649.2.649.6v2.55c0,.4-.217.601-.649.601h-11.75v12.25h5.649c.4,0,.601.2.601.6v2.55c0,.4-.2.601-.601.601Z"/><path class="g" d="M323.178,31.429c0,5.483-1.643,9.934-4.925,13.35-3.284,3.417-7.418,5.125-12.4,5.125s-9.143-1.725-12.475-5.175c-3.334-3.45-5-7.9-5-13.35s1.716-9.816,5.149-13.101c3.433-3.282,7.533-4.925,12.3-4.925s8.851,1.643,12.25,4.925c3.4,3.284,5.101,7.667,5.101,13.15ZM296.902,42.029c2.55,2.55,5.525,3.825,8.925,3.825s6.367-1.275,8.9-3.825,3.8-6.05,3.8-10.5-1.292-7.933-3.875-10.45c-2.583-2.516-5.524-3.774-8.825-3.774s-6.25,1.259-8.85,3.774c-2.6,2.518-3.9,6-3.9,10.45s1.275,7.95,3.825,10.5Z"/><path class="g" d="M139.178,85.755c.199.167.3.324.3.475s-.075.35-.226.6c-.149.25-.467.625-.949,1.125-.484.5-1.15,1.067-2,1.7-.85.634-1.95,1.167-3.301,1.601-1.35.433-2.791.649-4.324.649-3.5,0-6.426-1.149-8.775-3.45-2.35-2.3-3.525-5.391-3.525-9.274s1.176-6.95,3.525-9.2,5.225-3.375,8.625-3.375,5.967,1.233,7.7,3.7h.05l-.05-2.75c0-.433.216-.65.649-.65h1.9c.4,0,.6.218.6.65v8.5c0,.399-.199.6-.6.6h-2.3c-.399,0-.601-.2-.601-.6v-.851c-.033-1.199-.717-2.35-2.049-3.449-1.334-1.101-3.025-1.65-5.076-1.65s-3.924.817-5.625,2.45c-1.699,1.634-2.549,3.858-2.549,6.675s.832,5.05,2.5,6.7c1.666,1.649,3.532,2.475,5.6,2.475s3.824-.441,5.275-1.325c1.449-.883,2.424-1.741,2.924-2.574.233-.4.518-.45.851-.15l1.45,1.4Z"/><path class="g" d="M164.726,88.404c-2.334,2.334-5.316,3.5-8.949,3.5s-6.617-1.157-8.951-3.475c-2.333-2.316-3.5-5.4-3.5-9.25s1.184-6.908,3.551-9.175c2.366-2.267,5.342-3.4,8.925-3.4s6.55,1.143,8.899,3.425c2.351,2.284,3.525,5.334,3.525,9.15s-1.167,6.892-3.5,9.225ZM147.527,79.204c0,2.734.799,4.95,2.399,6.65s3.558,2.55,5.875,2.55,4.274-.85,5.875-2.55,2.399-3.916,2.399-6.65-.809-4.933-2.424-6.6c-1.617-1.666-3.559-2.5-5.826-2.5s-4.217.834-5.85,2.5c-1.633,1.667-2.449,3.867-2.449,6.6Z"/><path class="g" d="M198.527,91.554h-4.75c-1.434,0-2.15-.7-2.15-2.101v-13.149c0-1.933-.467-3.433-1.399-4.5-.934-1.066-2.3-1.601-4.101-1.601-2.566,0-4.566,1.051-6,3.15-.167.2-.383.567-.649,1.1v13.75h2.649c.434,0,.65.2.65.601v2.149c0,.4-.217.601-.65.601h-9.55c-.434,0-.649-.2-.649-.601v-2.149c0-.4.216-.601.649-.601h2.75v-17.899h-2.75c-.434,0-.649-.2-.649-.601v-2.149c0-.4.216-.601.649-.601h5.851c.433,0,.649.2.649.601l-.1,3.399h.149c1.733-2.899,4.417-4.35,8.051-4.35,2.666,0,4.75.783,6.25,2.35,1.5,1.567,2.266,3.684,2.3,6.351v12.899h2.8c.433,0,.65.2.65.601v2.149c0,.4-.218.601-.65.601Z"/><path class="g" d="M214.527,91.554h-3.35c-.334,0-.568-.058-.701-.175s-.267-.358-.399-.726l-7.95-20.35h-2.8c-.399,0-.601-.2-.601-.601v-2.149c0-.4.201-.601.601-.601h9.3c.4,0,.6.2.6.601v2.149c0,.4-.199.601-.6.601h-2.199l6.399,16.85h.101l6.5-16.85h-2.25c-.4,0-.601-.2-.601-.601v-2.149c0-.4.2-.601.601-.601h9.3c.432,0,.65.2.65.601v2.149c0,.4-.219.601-.65.601h-2.75l-8.05,20.35c-.201.601-.584.9-1.15.9Z"/><path class="g" d="M250.678,79.755h-18c.133,2.767,1.008,4.899,2.625,6.399,1.616,1.5,3.441,2.25,5.475,2.25s3.775-.433,5.225-1.3c1.45-.866,2.426-1.717,2.926-2.55.266-.333.566-.383.899-.15l1.351,1.351c.199.199.3.375.3.524,0,.15-.075.343-.226.575-.149.233-.458.6-.925,1.1s-1.125,1.067-1.975,1.7c-.851.634-1.95,1.167-3.3,1.601-1.351.433-2.793.649-4.325.649-3.5,0-6.425-1.149-8.775-3.45-2.35-2.3-3.524-5.391-3.524-9.274s1.166-6.95,3.5-9.2c2.332-2.25,5.191-3.375,8.574-3.375s6.042,1.092,7.976,3.275c1.933,2.184,2.899,5.125,2.899,8.824v.4c0,.434-.233.65-.699.65ZM245.277,71.755c-1.2-1.233-2.8-1.851-4.8-1.851s-3.718.567-5.15,1.7c-1.434,1.134-2.283,2.834-2.55,5.1h14.45c-.101-2.066-.75-3.716-1.95-4.949Z"/><path class="g" d="M265.526,91.554h-9.55c-.434,0-.649-.2-.649-.601v-2.149c0-.4.216-.601.649-.601h2.75v-17.899h-2.75c-.434,0-.649-.2-.649-.601v-2.149c0-.4.216-.601.649-.601h5.851c.433,0,.649.2.649.601v6.25h.15c.1-.533.45-1.267,1.05-2.2.6-.933,1.258-1.708,1.975-2.325.717-.616,1.75-1.175,3.101-1.675,1.35-.5,2.875-.75,4.575-.75.433,0,.649.217.649.65v2.649c0,.434-.217.65-.649.65h-1.051c-2.867,0-5.149.917-6.85,2.75s-2.55,3.917-2.55,6.25v8.399h2.649c.434,0,.65.2.65.601v2.149c0,.4-.217.601-.65.601Z"/><path class="g" d="M293.226,89.005c.133.133.2.274.2.425,0,.149-.1.325-.3.524-1.467,1.301-3.309,1.95-5.525,1.95s-4.033-.725-5.449-2.175c-1.418-1.45-2.125-3.558-2.125-6.325v-13.1h-2.801c-.467,0-.699-.217-.699-.65v-2.05c0-.433.232-.65.699-.65h2.801v-5.05c0-.466.232-.7.699-.7h2.801c.433,0,.649.234.649.7v5.05h6.351c.466,0,.699.218.699.65v2.05c0,.434-.233.65-.699.65h-6.351v13c0,1.667.375,2.925,1.125,3.774.75.851,1.75,1.275,3,1.275s2.191-.316,2.825-.95c.333-.3.633-.282.9.05l1.199,1.551Z"/><path class="g" d="M317.177,79.755h-18c.133,2.767,1.008,4.899,2.625,6.399,1.616,1.5,3.441,2.25,5.475,2.25s3.775-.433,5.225-1.3c1.45-.866,2.426-1.717,2.926-2.55.266-.333.566-.383.899-.15l1.351,1.351c.199.199.3.375.3.524,0,.15-.075.343-.226.575-.149.233-.458.6-.925,1.1s-1.125,1.067-1.975,1.7c-.851.634-1.95,1.167-3.3,1.601-1.351.433-2.793.649-4.325.649-3.5,0-6.425-1.149-8.775-3.45-2.35-2.3-3.524-5.391-3.524-9.274s1.166-6.95,3.5-9.2c2.332-2.25,5.191-3.375,8.574-3.375s6.042,1.092,7.976,3.275c1.933,2.184,2.899,5.125,2.899,8.824v.4c0,.434-.233.65-.699.65ZM311.776,71.755c-1.2-1.233-2.8-1.851-4.8-1.851s-3.718.567-5.15,1.7c-1.434,1.134-2.283,2.834-2.55,5.1h14.45c-.101-2.066-.75-3.716-1.95-4.949Z"/><path class="g" d="M332.025,91.554h-9.55c-.434,0-.649-.2-.649-.601v-2.149c0-.4.216-.601.649-.601h2.75v-17.899h-2.75c-.434,0-.649-.2-.649-.601v-2.149c0-.4.216-.601.649-.601h5.851c.433,0,.649.2.649.601v6.25h.15c.1-.533.45-1.267,1.05-2.2.6-.933,1.258-1.708,1.975-2.325.717-.616,1.75-1.175,3.101-1.675,1.35-.5,2.875-.75,4.575-.75.433,0,.649.217.649.65v2.649c0,.434-.217.65-.649.65h-1.051c-2.867,0-5.149.917-6.85,2.75s-2.55,3.917-2.55,6.25v8.399h2.649c.434,0,.65.2.65.601v2.149c0,.4-.217.601-.65.601Z"/></svg>